<svg width="104" height="42" viewBox="0 0 104 42" fill="none" xmlns="http://www.w3.org/2000/svg">
  <path d="M5.13318 36.9097C6.76053 38.5235 8.69247 39.8037 10.8187 40.6771C12.9449 41.5505 15.2238 42 17.5253 42C19.8267 42 22.1056 41.5505 24.2318 40.6771C26.358 39.8037 28.29 38.5235 29.9173 36.9097C31.5447 35.2959 32.8356 33.38 33.7163 31.2715C34.597 29.1629 35.0503 26.903 35.0503 24.6207C35.0503 22.3384 34.597 20.0785 33.7163 17.9699C32.8356 15.8614 31.5447 13.9455 29.9173 12.3317L17.5252 24.6207L5.13318 36.9097Z" fill="url(#paint0_linear)" />
  <path d="M37.2194 5.09028C35.592 3.47646 33.6601 2.19631 31.5338 1.32292C29.4076 0.449528 27.1287 -3.80888e-07 24.8273 0C22.5259 3.80888e-07 20.247 0.44953 18.1207 1.32292C15.9945 2.19631 14.0626 3.47646 12.4352 5.09028C10.8079 6.7041 9.51697 8.61998 8.63626 10.7285C7.75554 12.8371 7.30225 15.097 7.30225 17.3793C7.30225 19.6616 7.75555 21.9215 8.63626 24.0301C9.51698 26.1386 10.8079 28.0545 12.4352 29.6683L24.8273 17.3793L37.2194 5.09028Z" fill="#1F55E7" />
  <path d="M63.0681 24.545C63.0681 23.146 62.74 22.0226 61.9088 21.2383C61.2526 20.6024 60.2464 20.1785 58.8465 19.9877L56.9654 19.7334C56.4185 19.6698 56.0904 19.479 55.8936 19.2883C55.653 19.0551 55.5873 18.7795 55.5873 18.5888C55.5873 17.9317 56.1342 17.1898 57.4685 17.1898C58.1466 17.1898 59.4371 17.1262 60.4214 18.0801L62.8275 15.7485C61.4932 14.4555 59.809 13.9468 57.5778 13.9468C54.0343 13.9468 51.8907 15.9604 51.8907 18.716C51.8907 20.0089 52.2407 21.0264 52.9625 21.747C53.6624 22.4465 54.7124 22.8916 56.0904 23.0824L57.9716 23.3368C58.4747 23.4003 58.8028 23.5487 58.9996 23.7395C59.2184 23.9726 59.3059 24.2694 59.3059 24.6297C59.3059 25.4988 58.584 25.9863 57.0747 25.9863C55.8279 25.9863 54.4062 25.7108 53.5968 24.9265L51.147 27.3005C52.7219 28.869 54.6686 29.2929 57.0529 29.2929C60.3339 29.2929 63.0681 27.6184 63.0681 24.545Z" fill="#1F55E7" />
  <path d="M76.8363 23.8667V14.074H73.0084V23.7819C73.0084 25.1808 72.1772 25.9863 70.9085 25.9863C69.6399 25.9863 68.8524 25.1808 68.8524 23.7819V14.074H65.0245V23.8667C65.0245 27.1733 67.6712 29.2929 70.9085 29.2929C74.1459 29.2929 76.8363 27.1733 76.8363 23.8667Z" fill="#1F55E7" />
  <path d="M87.0912 18.9279C87.0912 19.7122 86.4787 20.4541 85.4288 20.4541H83.2633V17.4018H85.4288C86.4787 17.4018 87.0912 18.1437 87.0912 18.9279ZM91.7503 29.1658L88.3818 22.8704C89.6067 22.2769 90.9191 20.984 90.9191 18.9279C90.9191 16.4479 89.0598 14.074 85.6038 14.074H79.4354V29.1658H83.2633V23.5487H84.5539L87.3099 29.1658H91.7503Z" fill="#1F55E7" />
  <path d="M104 29.1658V25.8591H97.2408V23.2096H103.015V19.903H97.2408V17.3806H104V14.074H93.4129V29.1658H104Z" fill="#1F55E7" />
  <defs>
    <linearGradient id="paint0_linear" x1="22.1986" y1="14.7724" x2="32.349" y2="38.3736" gradientUnits="userSpaceOnUse">
      <stop />
      <stop offset="0.0220404" stop-color="#020611" />
      <stop offset="0.1025" stop-color="#0A1B49" />
      <stop offset="0.1833" stop-color="#102D79" />
      <stop offset="0.2628" stop-color="#163BA1" />
      <stop offset="0.3406" stop-color="#1A46BF" />
      <stop offset="0.4164" stop-color="#1D4FD5" />
      <stop offset="0.4892" stop-color="#1E53E3" />
      <stop offset="0.5555" stop-color="#1F55E7" />
    </linearGradient>
  </defs>
</svg>
