<svg width="103" height="42" viewBox="0 0 103 42" fill="none" xmlns="http://www.w3.org/2000/svg">
<path d="M5.10694 36.9097C6.7261 38.5235 8.64833 39.8037 10.7639 40.6771C12.8794 41.5505 15.1468 42 17.4367 42C19.7265 42 21.9939 41.5505 24.1095 40.6771C26.225 39.8037 28.1472 38.5235 29.7664 36.9097C31.3856 35.2959 32.6699 33.38 33.5462 31.2715C34.4225 29.1629 34.8735 26.903 34.8735 24.6207C34.8735 22.3384 34.4225 20.0785 33.5462 17.9699C32.6699 15.8614 31.3855 13.9455 29.7664 12.3317L17.4367 24.6207L5.10694 36.9097Z" fill="url(#paint0_linear)"/>
<path d="M37.0317 5.09027C35.4126 3.47646 33.4903 2.19631 31.3748 1.32292C29.2593 0.449528 26.9918 -3.80887e-07 24.702 0C22.4122 3.80888e-07 20.1447 0.449529 18.0292 1.32292C15.9137 2.19631 13.9914 3.47646 12.3723 5.09028C10.7531 6.70409 9.46872 8.61997 8.59244 10.7285C7.71615 12.8371 7.26514 15.097 7.26514 17.3793C7.26514 19.6616 7.71616 21.9215 8.59244 24.0301C9.46873 26.1386 10.7531 28.0545 12.3723 29.6683L24.702 17.3793L37.0317 5.09027Z" fill="white"/>
<path d="M62.0281 24.4786C62.0281 23.0383 61.6997 21.8817 60.8677 21.0742C60.2108 20.4195 59.2036 19.9831 57.8023 19.7867L55.9193 19.5248C55.372 19.4593 55.0435 19.2629 54.8465 19.0665C54.6056 18.8265 54.5399 18.5428 54.5399 18.3464C54.5399 17.6698 55.0873 16.906 56.4229 16.906C57.1017 16.906 58.3935 16.8406 59.3788 17.8226L61.7873 15.4221C60.4517 14.0909 58.7657 13.5671 56.5324 13.5671C52.9854 13.5671 50.8397 15.6403 50.8397 18.4773C50.8397 19.8085 51.19 20.856 51.9125 21.598C52.6132 22.3181 53.6641 22.7764 55.0435 22.9728L56.9265 23.2347C57.4301 23.3002 57.7585 23.4529 57.9556 23.6493C58.1746 23.8894 58.2621 24.1949 58.2621 24.5659C58.2621 25.4606 57.5396 25.9626 56.0288 25.9626C54.7808 25.9626 53.3576 25.6789 52.5475 24.8714L50.0952 27.3156C51.6717 28.9305 53.6203 29.3669 56.0069 29.3669C59.2912 29.3669 62.0281 27.6429 62.0281 24.4786Z" fill="white"/>
<path d="M75.8098 23.7803V13.6981H71.9782V23.693C71.9782 25.1333 71.1462 25.9626 69.8762 25.9626C68.6063 25.9626 67.8181 25.1333 67.8181 23.693V13.6981H63.9864V23.7803C63.9864 27.1846 66.6357 29.3669 69.8762 29.3669C73.1167 29.3669 75.8098 27.1846 75.8098 23.7803Z" fill="white"/>
<path d="M86.0748 18.6955C86.0748 19.503 85.4618 20.2668 84.4108 20.2668H82.2432V17.1243H84.4108C85.4618 17.1243 86.0748 17.8881 86.0748 18.6955ZM90.7385 29.236L87.3666 22.7546C88.5928 22.1435 89.9065 20.8123 89.9065 18.6955C89.9065 16.1422 88.0454 13.6981 84.586 13.6981H78.4115V29.236H82.2432V23.4529H83.535L86.2938 29.236H90.7385Z" fill="white"/>
<path d="M103 29.236V25.8316H96.2344V23.1038H102.015V19.6994H96.2344V17.1025H103V13.6981H92.4028V29.236H103Z" fill="white"/>
<defs>
<linearGradient id="paint0_linear" x1="28.0182" y1="13.125" x2="36.4298" y2="33.2582" gradientUnits="userSpaceOnUse">
<stop stop-color="#1C53E7"/>
<stop offset="0.105494" stop-color="#6D8EE8"/>
<stop offset="0.240898" stop-color="#BBCAF1"/>
<stop offset="0.373632" stop-color="#E4EAF9"/>
<stop offset="0.503848" stop-color="white"/>
</linearGradient>
</defs>
</svg>
